<svg xmlns="http://www.w3.org/2000/svg" viewBox="0 0 121.8 182.81"><defs><style>.cls-1{fill:#fff;}</style></defs><g id="图层_2" data-name="图层 2"><g id="图层_1-2" data-name="图层 1"><path class="cls-1" d="M21.52,73.26C36.73,72.08,39,82.53,37.58,95.77c-.62,5.58-2.55,11-3.6,16.56-1.47,7.74-.25,15.17,2.78,22.45a33.08,33.08,0,0,1,2.58,10.58c.4,7.11-5.66,11.42-12,8.21a40.66,40.66,0,0,1-12.12-9.35C1.2,128.13-1.87,108.84,1,88.49,2.46,77.72,9.39,73.24,21.52,73.26Z"/><path class="cls-1" d="M121.8,94c-.13,23.17-4.39,40.45-18.7,53.79a30.83,30.83,0,0,1-9.55,6.13c-5.93,2.31-11.26-1.63-11.16-8a21.58,21.58,0,0,1,1.74-8.71c5.85-12.25,4.79-24.54,1.05-37-2.12-7.07-2.48-14.25,1.11-20.88a11.31,11.31,0,0,1,6.51-5.2C111.94,69.82,121.81,78.23,121.8,94Z"/><path class="cls-1" d="M112.07,170c-3.08,9-11.38,13.61-22.44,12.69a64.13,64.13,0,0,1-13.74-2.35c-10-3.14-19.76-2.71-29.94-.17-7.09,1.76-14.76,2-22.11,1.68-6.95-.31-11.77-4.82-14.33-11.69,8.16,11.59,19.7,10.83,30.72,7.26,14.08-4.56,27.55-5.07,41.41.16,3.33,1.26,7.17,1.48,10.8,1.62C101.89,179.57,105.43,177.86,112.07,170Z"/><path class="cls-1" d="M49.46,50.12V0C52.9,16.7,53.58,33.42,49.46,50.12Z"/><path class="cls-1" d="M72.13,49.42C68.06,33.23,69,17.05,72.13.89Z"/></g></g></svg>