<svg xmlns="http://www.w3.org/2000/svg" viewBox="0 0 639.61 182.81"><g id="图层_2" data-name="图层 2"><g id="图层_1-2" data-name="图层 1"><path d="M21.62,134.6a19.78,19.78,0,0,1-8.88-1.77,13.42,13.42,0,0,1-5.58-5.13,23.76,23.76,0,0,1-2.91-8.1,59.48,59.48,0,0,1-.87-10.68l12.72-1.2q0,2.88.21,5.55a26.75,26.75,0,0,0,.78,4.8,8.29,8.29,0,0,0,1.68,3.39,3.63,3.63,0,0,0,2.85,1.26,4.16,4.16,0,0,0,4.08-2.67,15.67,15.67,0,0,0,1.2-6.45,18,18,0,0,0-2-7.86A46.67,46.67,0,0,0,20.18,98Q15.5,91.76,12,86.42a53.92,53.92,0,0,1-5.46-10.5,30.3,30.3,0,0,1-1.95-10.8,28.05,28.05,0,0,1,1.14-8.19,19.8,19.8,0,0,1,3.33-6.54A15.48,15.48,0,0,1,14.36,46a15.76,15.76,0,0,1,7.14-1.56,19.14,19.14,0,0,1,8.43,1.68A14.12,14.12,0,0,1,35.51,51a21.64,21.64,0,0,1,3.12,7.41,42.34,42.34,0,0,1,1,9.51L26.9,69.08q0-2.22-.21-4.47a22.13,22.13,0,0,0-.75-4.11,7.61,7.61,0,0,0-1.56-3,3.38,3.38,0,0,0-2.64-1.14,3.49,3.49,0,0,0-3.48,2.13,15.1,15.1,0,0,0-1,6A19.19,19.19,0,0,0,20,74.24a124.57,124.57,0,0,0,7.26,10.92,128.53,128.53,0,0,1,8.91,13.56,27.58,27.58,0,0,1,3.45,13.68,35.93,35.93,0,0,1-1,8.79,20.17,20.17,0,0,1-3.21,7.05,15.1,15.1,0,0,1-5.58,4.68A18.29,18.29,0,0,1,21.62,134.6Z" transform="translate(-3.38)"/><path d="M55.22,133.64V58.76H43V45.44H80.42V58.76H68.18v74.88Z" transform="translate(-3.38)"/><path d="M86.42,133.64V45.44h13q11.64,0,17.16,6.45t5.52,19a29.44,29.44,0,0,1-2.61,12.87,19.48,19.48,0,0,1-6.33,8l8.82,41.94H109l-7.32-37.2H99.38v37.2Zm13-49.2a9.23,9.23,0,0,0,5.7-1.59,8.66,8.66,0,0,0,3-4.53,23.9,23.9,0,0,0,.9-7q0-6.3-2.07-9.69t-7.53-3.39Z" transform="translate(-3.38)"/><path d="M129.26,133.64V45.44H158.9V58.76H142.22V82.52h12v13h-12v24.84H158.9v13.32Z" transform="translate(-3.38)"/><path d="M166,133.64l13.32-88.2H195.2l13.32,88.2h-12.6l-2.4-18H181l-2.4,18ZM182.84,102h8.88L188,72.32l-.36-4.68h-.72l-.36,4.68Z" transform="translate(-3.38)"/><path d="M215.42,133.64V45.44h16.44l7.08,45.72.6,4.68h.24l.6-4.68,7.08-45.72H263.9v88.2h-12V74.48h-.72l-.48,3.72L243,133.64H236.3L228.62,78.2l-.48-3.72h-.72v59.16Z" transform="translate(-3.38)"/><path d="M441.39,133.64V45.44h13V81.92h10.08V45.44h13v88.2h-13V95.24H454.35v38.4Z" transform="translate(-3.38)"/><path d="M503.67,134.6a16,16,0,0,1-15.21-9.36,22.21,22.21,0,0,1-2.07-9.72v-52a22.16,22.16,0,0,1,2.07-9.75,16.84,16.84,0,0,1,30.42,0A22.21,22.21,0,0,1,521,63.56v52a22.21,22.21,0,0,1-2.07,9.72,16,16,0,0,1-15.21,9.36Zm0-12.6a3.42,3.42,0,0,0,3.36-2,10.24,10.24,0,0,0,1-4.47v-52a9.73,9.73,0,0,0-1-4.47,3.69,3.69,0,0,0-6.57,0,9.51,9.51,0,0,0-1,4.47v52a9.73,9.73,0,0,0,1,4.47A3.44,3.44,0,0,0,503.67,122Z" transform="translate(-3.38)"/><path d="M530,133.64V45.44h13q11.64,0,17.16,6.45t5.52,19A29.44,29.44,0,0,1,563,83.75a19.48,19.48,0,0,1-6.33,8l8.82,41.94h-13l-7.32-37.2h-2.28v37.2Zm13-49.2a9.23,9.23,0,0,0,5.7-1.59,8.66,8.66,0,0,0,3-4.53,23.9,23.9,0,0,0,.9-7q0-6.3-2.07-9.69t-7.53-3.39Z" transform="translate(-3.38)"/><path d="M588.39,134.6a19.78,19.78,0,0,1-8.88-1.77,13.42,13.42,0,0,1-5.58-5.13,23.76,23.76,0,0,1-2.91-8.1,59.48,59.48,0,0,1-.87-10.68l12.72-1.2q0,2.88.21,5.55a26.75,26.75,0,0,0,.78,4.8,8.29,8.29,0,0,0,1.68,3.39,3.63,3.63,0,0,0,2.85,1.26,4.16,4.16,0,0,0,4.08-2.67,15.67,15.67,0,0,0,1.2-6.45,18,18,0,0,0-2-7.86A46.67,46.67,0,0,0,587,98q-4.68-6.24-8.19-11.58a53.92,53.92,0,0,1-5.46-10.5,30.3,30.3,0,0,1-1.95-10.8,28.05,28.05,0,0,1,1.14-8.19,19.8,19.8,0,0,1,3.33-6.54A15.48,15.48,0,0,1,581.13,46a15.76,15.76,0,0,1,7.14-1.56,19.14,19.14,0,0,1,8.43,1.68,14.12,14.12,0,0,1,5.58,4.8,21.64,21.64,0,0,1,3.12,7.41,42.34,42.34,0,0,1,1,9.51l-12.72,1.2q0-2.22-.21-4.47a22.13,22.13,0,0,0-.75-4.11,7.61,7.61,0,0,0-1.56-3,3.38,3.38,0,0,0-2.64-1.14A3.49,3.49,0,0,0,585,58.49a15.1,15.1,0,0,0-1,6,19.19,19.19,0,0,0,2.7,9.72A124.57,124.57,0,0,0,594,85.16a128.53,128.53,0,0,1,8.91,13.56,27.58,27.58,0,0,1,3.45,13.68,35.93,35.93,0,0,1-1,8.79,20.17,20.17,0,0,1-3.21,7.05,15.1,15.1,0,0,1-5.58,4.68A18.29,18.29,0,0,1,588.39,134.6Z" transform="translate(-3.38)"/><path d="M613.35,133.64V45.44H643V58.76H626.31V82.52h12v13h-12v24.84H643v13.32Z" transform="translate(-3.38)"/><path d="M313.42,73.26c15.21-1.18,17.52,9.27,16.06,22.51-.62,5.58-2.55,11-3.6,16.56-1.47,7.74-.25,15.17,2.78,22.45a33.08,33.08,0,0,1,2.58,10.58c.4,7.11-5.66,11.42-12,8.21a40.66,40.66,0,0,1-12.12-9.35c-14-16.09-17.07-35.38-14.24-55.73C294.35,77.72,301.29,73.24,313.42,73.26Z" transform="translate(-3.38)"/><path d="M413.7,94c-.13,23.17-4.39,40.45-18.7,53.79a30.88,30.88,0,0,1-9.56,6.13c-5.92,2.31-11.25-1.63-11.15-8A21.42,21.42,0,0,1,376,137.2c5.85-12.25,4.78-24.54,1.05-37-2.12-7.07-2.48-14.25,1.11-20.88a11.28,11.28,0,0,1,6.51-5.2C403.84,69.82,413.7,78.23,413.7,94Z" transform="translate(-3.38)"/><path d="M404,170c-3.08,9-11.39,13.61-22.45,12.69a64.15,64.15,0,0,1-13.73-2.35c-10.05-3.14-19.76-2.71-30-.17-7.09,1.76-14.75,2-22.1,1.68-6.95-.31-11.77-4.82-14.33-11.69,8.16,11.59,19.7,10.83,30.72,7.26,14.08-4.56,27.55-5.07,41.41.16,3.33,1.26,7.17,1.48,10.8,1.62C393.79,179.57,397.33,177.86,404,170Z" transform="translate(-3.38)"/><path d="M341.36,50.12V0C344.79,16.7,345.48,33.42,341.36,50.12Z" transform="translate(-3.38)"/><path d="M364,49.42C360,33.23,360.85,17.05,364,.89Z" transform="translate(-3.38)"/></g></g></svg>